<svg width="72" height="66" viewBox="0 0 72 66" fill="none" xmlns="http://www.w3.org/2000/svg">
<g id="cart-shopping-svgrepo-com (1) 1" filter="url(#filter0_d_7_66)">
<g id="SVGRepo_iconCarrier">
<path id="Vector" d="M18.8993 13.3333H63L57 32H22.1301M60 42.6667H24L18 8H9M27 53.3333C27 54.8061 25.6568 56 24 56C22.3432 56 21 54.8061 21 53.3333C21 51.8605 22.3432 50.6667 24 50.6667C25.6568 50.6667 27 51.8605 27 53.3333ZM60 53.3333C60 54.8061 58.6569 56 57 56C55.3431 56 54 54.8061 54 53.3333C54 51.8605 55.3431 50.6667 57 50.6667C58.6569 50.6667 60 51.8605 60 53.3333Z" stroke="#FF5733" stroke-width="3.2" stroke-linecap="round" stroke-linejoin="round"/>
</g>
</g>
<defs>
<filter id="filter0_d_7_66" x="-4" y="0" width="80" height="72" filterUnits="userSpaceOnUse" color-interpolation-filters="sRGB">
<feFlood flood-opacity="0" result="BackgroundImageFix"/>
<feColorMatrix in="SourceAlpha" type="matrix" values="0 0 0 0 0 0 0 0 0 0 0 0 0 0 0 0 0 0 127 0" result="hardAlpha"/>
<feOffset dy="4"/>
<feGaussianBlur stdDeviation="2"/>
<feComposite in2="hardAlpha" operator="out"/>
<feColorMatrix type="matrix" values="0 0 0 0 0 0 0 0 0 0 0 0 0 0 0 0 0 0 0.25 0"/>
<feBlend mode="normal" in2="BackgroundImageFix" result="effect1_dropShadow_7_66"/>
<feBlend mode="normal" in="SourceGraphic" in2="effect1_dropShadow_7_66" result="shape"/>
</filter>
</defs>
</svg>
