<svg width="65" height="65" viewBox="0 0 65 65" fill="none" xmlns="http://www.w3.org/2000/svg">
<g id="facebook-color-svgrepo-com 1" clip-path="url(#clip0_11_212)">
<g id="Icons">
<g id="Color-">
<path id="Facebook" fill-rule="evenodd" clip-rule="evenodd" d="M34.7186 65H3.5875C1.6056 65 0 63.3934 0 61.4123V3.58748C0 1.60584 1.60585 0 3.5875 0H61.4127C63.3939 0 65 1.60584 65 3.58748V61.4123C65 63.3937 63.3936 65 61.4127 65H44.8491V39.8284H53.298L54.5631 30.0186H44.8491V23.7557C44.8491 20.9155 45.6377 18.98 49.7105 18.98L54.9051 18.9777V10.2038C54.0067 10.0842 50.9231 9.81713 47.3356 9.81713C39.8461 9.81713 34.7186 14.3887 34.7186 22.7841V30.0186H26.248V39.8284H34.7186V65Z" fill="#4460A0"/>
</g>
</g>
</g>
<defs>
<clipPath id="clip0_11_212">
<rect width="65" height="65" fill="white"/>
</clipPath>
</defs>
</svg>
