<svg width="75" height="75" viewBox="0 0 75 75" fill="none" xmlns="http://www.w3.org/2000/svg">
<g id="instagram-1-svgrepo-com 1">
<path id="Vector" d="M56.25 4.6875H18.75C10.9835 4.6875 4.6875 10.9835 4.6875 18.75V56.25C4.6875 64.0165 10.9835 70.3125 18.75 70.3125H56.25C64.0165 70.3125 70.3125 64.0165 70.3125 56.25V18.75C70.3125 10.9835 64.0165 4.6875 56.25 4.6875Z" fill="url(#paint0_radial_11_205)"/>
<path id="Vector_2" d="M56.25 4.6875H18.75C10.9835 4.6875 4.6875 10.9835 4.6875 18.75V56.25C4.6875 64.0165 10.9835 70.3125 18.75 70.3125H56.25C64.0165 70.3125 70.3125 64.0165 70.3125 56.25V18.75C70.3125 10.9835 64.0165 4.6875 56.25 4.6875Z" fill="url(#paint1_radial_11_205)"/>
<path id="Vector_3" d="M56.25 4.6875H18.75C10.9835 4.6875 4.6875 10.9835 4.6875 18.75V56.25C4.6875 64.0165 10.9835 70.3125 18.75 70.3125H56.25C64.0165 70.3125 70.3125 64.0165 70.3125 56.25V18.75C70.3125 10.9835 64.0165 4.6875 56.25 4.6875Z" fill="url(#paint2_radial_11_205)"/>
<path id="Vector_4" d="M53.9062 24.6094C53.9062 26.5509 52.3322 28.125 50.3906 28.125C48.4491 28.125 46.875 26.5509 46.875 24.6094C46.875 22.6677 48.4491 21.0938 50.3906 21.0938C52.3322 21.0938 53.9062 22.6677 53.9062 24.6094Z" fill="white"/>
<path id="Vector_5" fill-rule="evenodd" clip-rule="evenodd" d="M37.5 49.2188C43.972 49.2188 49.2188 43.972 49.2188 37.5C49.2188 31.028 43.972 25.7812 37.5 25.7812C31.028 25.7812 25.7812 31.028 25.7812 37.5C25.7812 43.972 31.028 49.2188 37.5 49.2188ZM37.5 44.5312C41.3834 44.5312 44.5312 41.3834 44.5312 37.5C44.5312 33.6166 41.3834 30.4688 37.5 30.4688C33.6166 30.4688 30.4688 33.6166 30.4688 37.5C30.4688 41.3834 33.6166 44.5312 37.5 44.5312Z" fill="white"/>
<path id="Vector_6" fill-rule="evenodd" clip-rule="evenodd" d="M14.0625 36.5625C14.0625 28.6868 14.0625 24.7488 15.5952 21.7408C16.9434 19.0947 19.0947 16.9434 21.7408 15.5952C24.7488 14.0625 28.6868 14.0625 36.5625 14.0625H38.4375C46.3132 14.0625 50.2512 14.0625 53.2591 15.5952C55.9052 16.9434 58.0566 19.0947 59.4047 21.7408C60.9375 24.7488 60.9375 28.6868 60.9375 36.5625V38.4375C60.9375 46.3132 60.9375 50.2512 59.4047 53.2591C58.0566 55.9052 55.9052 58.0566 53.2591 59.4047C50.2512 60.9375 46.3132 60.9375 38.4375 60.9375H36.5625C28.6868 60.9375 24.7488 60.9375 21.7408 59.4047C19.0947 58.0566 16.9434 55.9052 15.5952 53.2591C14.0625 50.2512 14.0625 46.3132 14.0625 38.4375V36.5625ZM36.5625 18.75H38.4375C42.4528 18.75 45.1821 18.7537 47.292 18.926C49.3472 19.0939 50.3981 19.3983 51.1312 19.7718C52.8952 20.6706 54.3293 22.1048 55.2281 23.8687C55.6017 24.6019 55.9062 25.6528 56.074 27.708C56.2463 29.8179 56.25 32.5472 56.25 36.5625V38.4375C56.25 42.4528 56.2463 45.1821 56.074 47.292C55.9062 49.3472 55.6017 50.3981 55.2281 51.1312C54.3293 52.8952 52.8952 54.3293 51.1312 55.2281C50.3981 55.6017 49.3472 55.9062 47.292 56.074C45.1821 56.2463 42.4528 56.25 38.4375 56.25H36.5625C32.5472 56.25 29.8179 56.2463 27.708 56.074C25.6528 55.9062 24.6019 55.6017 23.8687 55.2281C22.1048 54.3293 20.6706 52.8952 19.7718 51.1312C19.3983 50.3981 19.0939 49.3472 18.926 47.292C18.7537 45.1821 18.75 42.4528 18.75 38.4375V36.5625C18.75 32.5472 18.7537 29.8179 18.926 27.708C19.0939 25.6528 19.3983 24.6019 19.7718 23.8687C20.6706 22.1048 22.1048 20.6706 23.8687 19.7718C24.6019 19.3983 25.6528 19.0939 27.708 18.926C29.8179 18.7537 32.5472 18.75 36.5625 18.75Z" fill="white"/>
</g>
<defs>
<radialGradient id="paint0_radial_11_205" cx="0" cy="0" r="1" gradientUnits="userSpaceOnUse" gradientTransform="translate(28.125 53.9063) rotate(-55.3758) scale(59.8116)">
<stop stop-color="#B13589"/>
<stop offset="0.79309" stop-color="#C62F94"/>
<stop offset="1" stop-color="#8A3AC8"/>
</radialGradient>
<radialGradient id="paint1_radial_11_205" cx="0" cy="0" r="1" gradientUnits="userSpaceOnUse" gradientTransform="translate(25.7813 72.6563) rotate(-65.1363) scale(52.9552)">
<stop stop-color="#E0E8B7"/>
<stop offset="0.444662" stop-color="#FB8A2E"/>
<stop offset="0.71474" stop-color="#E2425C"/>
<stop offset="1" stop-color="#E2425C" stop-opacity="0"/>
</radialGradient>
<radialGradient id="paint2_radial_11_205" cx="0" cy="0" r="1" gradientUnits="userSpaceOnUse" gradientTransform="translate(1.17188 7.03125) rotate(-8.1301) scale(91.1505 19.4962)">
<stop offset="0.156701" stop-color="#406ADC"/>
<stop offset="0.467799" stop-color="#6A45BE"/>
<stop offset="1" stop-color="#6A45BE" stop-opacity="0"/>
</radialGradient>
</defs>
</svg>
