<svg width="65" height="65" viewBox="0 0 65 65" fill="none" xmlns="http://www.w3.org/2000/svg">
<g id="twitter-color-svgrepo-com 1" clip-path="url(#clip0_11_216)">
<g id="Icons">
<g id="Color-">
<path id="Twitter" fill-rule="evenodd" clip-rule="evenodd" d="M65 11.8291C62.6117 12.9168 60.0402 13.6523 57.3428 13.9809C60.0974 12.2908 62.2111 9.61081 63.2068 6.41832C60.6277 7.98327 57.7778 9.12175 54.7332 9.73208C52.3068 7.07559 48.8387 5.41675 45.0006 5.41675C37.641 5.41675 31.6702 11.5396 31.6702 19.0905C31.6702 20.1624 31.7846 21.2031 32.0136 22.2047C20.9303 21.6335 11.1061 16.1953 4.52485 7.91283C3.37647 9.93944 2.72024 12.2908 2.72024 14.7947C2.72024 19.5365 5.07426 23.7227 8.65294 26.1758C6.47063 26.1092 4.41039 25.4872 2.60961 24.47V24.6382C2.60961 31.2657 7.20695 36.7939 13.3113 38.0458C12.1935 38.3667 11.0146 38.5271 9.7975 38.5271C8.93907 38.5271 8.09972 38.4449 7.28708 38.2845C8.98485 43.7149 13.9065 47.6703 19.7438 47.7759C15.1808 51.4457 9.42741 53.6327 3.18189 53.6327C2.10599 53.6327 1.04156 53.5701 0 53.4449C5.90215 57.3181 12.9145 59.5834 20.442 59.5834C44.9739 59.5834 58.3844 38.7501 58.3844 20.6789C58.3844 20.0842 58.3729 19.4895 58.35 18.9066C60.9558 16.9778 63.2183 14.5717 65 11.8291Z" fill="#00AAEC"/>
</g>
</g>
</g>
<defs>
<clipPath id="clip0_11_216">
<rect width="65" height="65" fill="white"/>
</clipPath>
</defs>
</svg>
