<svg width="75" height="75" viewBox="0 0 75 75" fill="none" xmlns="http://www.w3.org/2000/svg">
<g id="youtube-color-svgrepo-com 1" clip-path="url(#clip0_11_220)">
<g id="Icons">
<g id="Color-">
<path id="Youtube" fill-rule="evenodd" clip-rule="evenodd" d="M29.7563 47.2968L29.7539 26.0746L50.018 36.7223L29.7563 47.2968ZM74.25 22.3971C74.25 22.3971 73.5164 17.1925 71.2688 14.9006C68.4164 11.8911 65.2195 11.8769 63.7547 11.7023C53.2594 10.9375 37.5164 10.9375 37.5164 10.9375H37.4836C37.4836 10.9375 21.7406 10.9375 11.2453 11.7023C9.77813 11.8769 6.5836 11.8911 3.72891 14.9006C1.48126 17.1925 0.749993 22.3971 0.749993 22.3971C0.749993 22.3971 0 28.5105 0 34.6215V40.3525C0 46.4659 0.749993 52.5769 0.749993 52.5769C0.749993 52.5769 1.48126 57.7815 3.72891 60.0735C6.5836 63.083 10.3312 62.9885 12 63.3025C18 63.8831 37.5 64.0625 37.5 64.0625C37.5 64.0625 53.2594 64.0389 63.7547 63.2741C65.2195 63.0971 68.4164 63.083 71.2688 60.0735C73.5164 57.7815 74.25 52.5769 74.25 52.5769C74.25 52.5769 75 46.4659 75 40.3525V34.6215C75 28.5105 74.25 22.3971 74.25 22.3971Z" fill="#CE1312"/>
</g>
</g>
</g>
<defs>
<clipPath id="clip0_11_220">
<rect width="75" height="75" fill="white"/>
</clipPath>
</defs>
</svg>
